<svg width="100%" viewBox="0 0 680 260" role="img" xmlns="http://www.w3.org/2000/svg">
<title>Anonymous Planet</title>
<desc>A hacker terminal style logo: an eye shape with a curved orbital arc passing through it and a small satellite riding the arc, set inside a bracket frame</desc>
<style>
  .ap-frame    { stroke: #0a8a3d80; }
  .ap-fill     { fill: #eef6ee; }
  .ap-line     { stroke: #0a8a3d; }
  .ap-line-faint { stroke: #0a8a3d80; }
  .ap-core     { fill: #007a3d; }
  .ap-accent   { stroke: #007a3d; }
  .ap-accent-fill { fill: #007a3d; }

  [data-md-color-scheme="slate"] .ap-frame    { stroke: #0b850080; }
  [data-md-color-scheme="slate"] .ap-fill     { fill: #0f1f0f; }
  [data-md-color-scheme="slate"] .ap-line     { stroke: #039634; }
  [data-md-color-scheme="slate"] .ap-line-faint { stroke: #0b850080; }
  [data-md-color-scheme="slate"] .ap-core     { fill: #00f080; }
  [data-md-color-scheme="slate"] .ap-accent   { stroke: #00f080; }
  [data-md-color-scheme="slate"] .ap-accent-fill { fill: #00f080; }

  @media (prefers-color-scheme: dark) {
    .ap-frame    { stroke: #0b850080; }
    .ap-fill     { fill: #0f1f0f; }
    .ap-line     { stroke: #039634; }
    .ap-line-faint { stroke: #0b850080; }
    .ap-core     { fill: #00f080; }
    .ap-accent   { stroke: #00f080; }
    .ap-accent-fill { fill: #00f080; }
  }
</style>
<defs>
<marker id="ap-arrow" viewBox="0 0 10 10" refX="8" refY="5" markerWidth="6" markerHeight="6" orient="auto-start-reverse"><path d="M2 1L8 5L2 9" fill="none" stroke="context-stroke" stroke-width="1.5" stroke-linecap="round" stroke-linejoin="round"/></marker>
</defs>

<path class="ap-frame" d="M250 40 L230 40 L230 110" fill="none" stroke-width="1.5"/>
<path class="ap-frame" d="M430 40 L450 40 L450 110" fill="none" stroke-width="1.5"/>
<path class="ap-frame" d="M250 220 L230 220 L230 150" fill="none" stroke-width="1.5"/>
<path class="ap-frame" d="M430 220 L450 220 L450 150" fill="none" stroke-width="1.5"/>

<path class="ap-fill ap-line" d="M255 130 C 285 85, 395 85, 425 130 C 395 175, 285 175, 255 130 Z" stroke-width="0.75"/>

<circle class="ap-line" cx="340" cy="130" r="32" fill="none" stroke-width="0.5"/>
<circle class="ap-core" cx="340" cy="130" r="13" opacity="0.10"/>
<circle class="ap-line" cx="340" cy="130" r="13" fill="none" stroke-width="0.5"/>

<g class="ap-line-faint" stroke-width="0.5">
<line x1="340" y1="98" x2="340" y2="106"/>
<line x1="340" y1="154" x2="340" y2="162"/>
<line x1="308" y1="130" x2="316" y2="130"/>
<line x1="364" y1="130" x2="372" y2="130"/>
</g>

<circle class="ap-core" cx="340" cy="130" r="2.5"/>

<g>
<circle class="ap-fill ap-line" cx="255" cy="130" r="3" stroke-width="1"/>
<circle class="ap-fill ap-line" cx="425" cy="130" r="3" stroke-width="1"/>
<circle class="ap-fill ap-line" cx="295" cy="98" r="2.5" stroke-width="1"/>
<circle class="ap-fill ap-line" cx="385" cy="98" r="2.5" stroke-width="1"/>
<circle class="ap-fill ap-line" cx="295" cy="162" r="2.5" stroke-width="1"/>
<circle class="ap-fill ap-line" cx="385" cy="162" r="2.5" stroke-width="1"/>
</g>

<path class="ap-accent" d="M225 185 C 300 130, 380 130, 455 75" fill="none" stroke-width="2" stroke-linecap="round"/>

<circle class="ap-accent-fill" cx="225" cy="185" r="3"/>
<circle class="ap-accent-fill" cx="455" cy="75" r="3"/>

<g transform="translate(403, 95) rotate(-32)">
  <rect class="ap-fill ap-accent" x="-7" y="-5" width="14" height="10" rx="1.5" stroke-width="1"/>
  <rect class="ap-accent" x="-22" y="-2" width="12" height="4" fill="none" stroke-width="0.75"/>
  <line class="ap-accent" x1="-22" y1="0" x2="-10" y2="0" stroke-width="0.5"/>
  <rect class="ap-accent" x="10" y="-2" width="12" height="4" fill="none" stroke-width="0.75"/>
  <line class="ap-accent" x1="10" y1="0" x2="22" y2="0" stroke-width="0.5"/>
  <line class="ap-accent" x1="0" y1="-5" x2="0" y2="-11" stroke-width="0.75"/>
  <circle class="ap-accent-fill" cx="0" cy="-11" r="1.5"/>
</g>

</svg>
